<?xml version="1.0" encoding="utf-8"?>
<!-- Generator: Adobe Illustrator 15.1.0, SVG Export Plug-In . SVG Version: 6.00 Build 0)  -->
<!DOCTYPE svg PUBLIC "-//W3C//DTD SVG 1.1//EN" "http://www.w3.org/Graphics/SVG/1.1/DTD/svg11.dtd">
<svg version="1.1" id="Layer_1" xmlns="http://www.w3.org/2000/svg" xmlns:xlink="http://www.w3.org/1999/xlink" x="0px" y="0px"
	 width="1133.86px" height="1133.86px" viewBox="0 0 1133.86 1133.86" enable-background="new 0 0 1133.86 1133.86"
	 xml:space="preserve">
<g>
	<path fill="#0063A3" d="M573.893,98.86c-25.031,0.017-50.049,1.524-74.709,4.501c-24.907,3.006-49.702,7.541-74.015,13.63
		c-24.811,6.212-49.378,14.106-73.3,23.761c-24.681,9.96-48.947,21.904-72.347,35.985c-41.144,24.757-76.392,54.21-104.836,87.302
		c-31.2,36.298-54.67,77.511-68.376,121.879c-15.262,49.407-18.498,102.996-6.422,157.363
		c13.508,60.809,46.017,121.944,101.03,176.907l102.412-104.684c-0.003-0.003-0.005-0.003-0.006-0.006
		c-0.001,0-0.003-0.004-0.003-0.007c-0.002,0-0.003,0-0.005-0.003c0,0-0.004-0.003-0.006-0.003l0.018-0.018
		c-44.154-37.11-73.061-79.495-88.308-122.853c-14.003-39.82-16.345-80.084-8.858-118.128c6.876-34.949,22.059-68.099,44.259-97.855
		c20.59-27.601,47.417-52.554,79.856-73.816c18.628-12.218,38.238-22.65,58.413-31.397c19.653-8.521,40.019-15.521,60.731-21.049
		c20.358-5.432,41.228-9.49,62.266-12.186c20.861-2.67,42.067-4.024,63.3-4.036c13.998-0.009,28.07,0.564,42.135,1.733
		c14.119,1.174,28.281,2.953,42.4,5.358c14.232,2.426,28.477,5.497,42.648,9.247c14.344,3.795,28.674,8.301,42.902,13.557
		l31.033-31.685c-17.195-5.934-34.424-11.006-51.594-15.267c-16.928-4.201-33.883-7.635-50.775-10.343
		c-16.732-2.681-33.484-4.661-50.156-5.966C606.982,99.483,590.389,98.848,573.893,98.86"/>
	<path fill="#D0DD28" d="M576.217,173.983c-16.952,0.01-33.865,1.156-50.462,3.42c-16.71,2.277-33.216,5.704-49.228,10.279
		c-16.231,4.635-32.068,10.485-47.196,17.57c-15.444,7.233-30.261,15.807-44.106,25.776c-23.847,17.174-42.776,37.037-56.441,58.647
		c-14.471,22.886-23.135,47.891-25.32,73.709c-2.326,27.493,2.698,55.914,15.91,83.362c14.042,29.171,37.205,56.988,70.042,80.794
		l73.315-74.946c-21.526-13.735-37.609-30.101-48.324-47.647c-10.308-16.878-15.584-34.744-16.072-52.415
		c-0.469-16.956,3.47-33.72,11.586-49.369c7.806-15.052,19.505-29.128,34.983-41.491c9.084-7.258,19.002-13.548,29.496-18.891
		c10.343-5.265,21.297-9.635,32.625-13.116c11.221-3.448,22.863-6.038,34.703-7.765c11.785-1.718,23.824-2.588,35.904-2.593
		c7.961-0.003,15.963,0.371,23.943,1.128c7.996,0.759,15.99,1.906,23.922,3.451c7.965,1.554,15.883,3.513,23.697,5.892
		c7.865,2.395,15.643,5.221,23.268,8.497l38.271-39.104c0-0.001-0.002-0.001-0.002-0.001c-0.004-0.002-0.004-0.002-0.004-0.002
		c-0.002-0.001-0.002-0.001-0.002-0.001c-0.004-0.002-0.006-0.002-0.008-0.002l0.008-0.008
		c-11.047-4.388-22.238-8.161-33.494-11.349c-11.15-3.157-22.402-5.75-33.68-7.8c-11.205-2.04-22.471-3.549-33.719-4.546
		C598.619,174.467,587.389,173.979,576.217,173.983"/>
	<path fill="#0063A3" d="M745.072,164.043l-34.348,35.114l-0.008,0.008c0.002,0,0.004,0,0.006,0.002c0,0,0.002,0,0.004,0.001
		c0,0,0,0,0.002,0c0,0,0.004,0.002,0.004,0.003c38.148,15.157,72.328,34.786,101.799,57.981
		c31.441,24.744,58.084,53.994,78.391,86.59c22.041,35.385,36.881,75.143,41.98,117.447c5.604,46.46-0.52,96.144-21.906,145.828
		c-13.9,32.296-33.316,62.43-57.666,89.747c-25.525,28.638-56.137,53.806-90.893,74.82c-35.955,21.741-75.785,38.702-118.191,50.297
		c-43.164,11.805-88.243,17.845-133.681,17.786c-29.943-0.04-59.742-2.731-88.938-8.098c-28.956-5.32-57.089-13.226-83.965-23.673
		c-26.446-10.278-51.472-22.938-74.698-37.876c-22.683-14.588-43.482-31.247-62.089-49.833L77,846.811
		c23.18,28.543,49.946,54.415,79.893,77.306c30.958,23.665,64.993,43.899,101.541,60.458c37.394,16.942,76.999,29.853,118.12,38.572
		c41.608,8.83,84.287,13.28,127.269,13.36c65.245,0.119,129.763-9.801,190.972-29.101c59.676-18.811,114.764-46.086,163.289-80.619
		c46.268-32.931,85.623-71.794,116.887-115.27c29.301-40.75,51.021-84.906,64.641-131.336c20.42-69.656,20.471-137.27,6.051-198.713
		c-12.801-54.511-37.07-104.542-69.121-148.117c-28.969-39.378-64.732-74.104-105.268-103.04
		C833.777,203.546,791.418,181.163,745.072,164.043"/>
	<path fill="#D0DD28" d="M672.461,238.275l-42.936,43.843c20.172,9.443,37.379,21.398,51.275,35.147
		c14.389,14.24,25.348,30.523,32.305,48.01c7.254,18.236,10.189,37.86,8.045,57.797c-2.24,20.853-10.035,42.034-24.209,62.141
		c-8.834,12.537-19.596,23.875-31.943,33.869c-12.6,10.195-26.771,18.93-42.119,26.067c-15.563,7.235-32.229,12.784-49.551,16.528
		c-17.445,3.774-35.432,5.695-53.482,5.683c-11.893-0.006-23.766-0.851-35.479-2.546c-11.676-1.689-23.154-4.219-34.302-7.594
		c-11.075-3.351-21.785-7.522-32.003-12.513c-10.118-4.942-19.72-10.667-28.68-17.167l-86.055,87.928l-0.018,0.018
		c0.002,0,0.005,0.003,0.005,0.003c0.003,0.003,0.004,0.003,0.006,0.003c0,0.003,0.002,0.007,0.003,0.007
		c0.001,0.003,0.003,0.003,0.006,0.006c13.762,11.564,28.782,21.829,44.851,30.751c16.328,9.063,33.654,16.691,51.741,22.848
		c18.284,6.222,37.247,10.908,56.636,14.052c19.496,3.158,39.315,4.737,59.193,4.756c30.176,0.027,60.184-3.54,89.123-10.527
		c28.6-6.908,55.822-17.082,80.865-30.25c24.477-12.869,46.611-28.465,65.748-46.458c18.523-17.421,34.068-36.928,46.133-58.19
		c18.977-33.424,27.414-67.775,27.201-100.759c-0.199-30.793-7.938-60.415-21.682-87.354c-12.916-25.314-31.232-48.444-53.91-68.328
		C727.668,267.137,701.893,250.928,672.461,238.275"/>
	<path fill="#414042" d="M554.476,315.398c-8.077,0-15.79,1.157-22.857,3.254c-7.102,2.11-13.582,5.182-19.127,9.008
		c-5.597,3.864-10.262,8.512-13.649,13.736c-3.433,5.29-5.566,11.185-6.028,17.464c-0.469,6.373,0.828,12.534,3.607,18.215
		c2.816,5.756,7.146,11.006,12.683,15.464c5.595,4.503,12.396,8.183,20.063,10.742c7.712,2.576,16.257,4.006,25.261,4.008
		c9.009,0.001,17.565-1.427,25.284-4.002c7.676-2.559,14.486-6.236,20.088-10.741c5.547-4.457,9.887-9.707,12.711-15.466
		c2.787-5.682,4.09-11.845,3.627-18.22c-0.457-6.281-2.584-12.177-6.014-17.47c-3.387-5.224-8.047-9.873-13.646-13.736
		c-5.543-3.828-12.025-6.898-19.133-9.006C570.275,316.55,562.557,315.396,554.476,315.398"/>
</g>
</svg>
